<?xml version="1.0" encoding="utf-8"?>
<!-- Generator: Adobe Illustrator 26.3.1, SVG Export Plug-In . SVG Version: 6.00 Build 0)  -->
<svg version="1.1" xmlns="http://www.w3.org/2000/svg" xmlns:xlink="http://www.w3.org/1999/xlink" x="0px" y="0px"
	 viewBox="0 0 1000 1000" style="enable-background:new 0 0 1000 1000;" xml:space="preserve">
<style type="text/css">
	.st0{fill:none;stroke:#231F20;stroke-miterlimit:10;}
	.st1{fill:none;stroke:#E80088;stroke-width:0.25;stroke-miterlimit:10;}
	.st2{fill:#231F20;}
	.st3{fill:#E91C24;stroke:#FFFFFF;stroke-width:2;stroke-linejoin:round;stroke-miterlimit:10;}
	.st4{fill:#E91C24;}
	.st5{fill:none;stroke:#FFFFFF;stroke-width:2;stroke-miterlimit:10;}
	.st6{fill:none;stroke:#E80088;stroke-miterlimit:10;}
	.st7{fill:#231F20;stroke:#231F20;stroke-width:3;stroke-miterlimit:10;}
	.st8{fill:none;stroke:#231F20;stroke-width:3;stroke-miterlimit:10;}
	.st9{fill:#231F20;stroke:#231F20;stroke-miterlimit:10;}
	.st10{fill:none;stroke:#231F20;stroke-width:20;stroke-linejoin:bevel;stroke-miterlimit:10;}
	.st11{fill:none;stroke:#231F20;stroke-width:25;stroke-linejoin:bevel;stroke-miterlimit:10;}
	.st12{fill:none;stroke:#231F20;stroke-width:25;stroke-miterlimit:10;}
</style>
<g id="Layer_1">
</g>
<g id="Layer_2">
</g>
<g id="Layer_3">
	<g>
		<g>
			<path class="st2" d="M618.8,600L618.8,600c18.6,11.3,40,17.3,61.9,17.3c65.7,0,119.1-53.4,119.1-119.1
				c0-65.7-53.4-119.1-119.1-119.1c-36.4,0-70.9,17-94.6,46.7l-54.3,67.8l-35.6-22.2l192-239.7l-17.4-36.2h-52.3
				c-72.9,0-132.2-59.3-132.2-132.1h-44.6c0,72.9-59.3,132.2-132.2,132.2V240c72.9,0,132.2,59.3,132.2,132.2h44.6
				c0-35.3,13.8-68.5,38.7-93.5l-31.5-31.5c-11.8,11.8-21.7,24.9-29.5,39c-16-28.7-39.8-52.5-68.5-68.5c28.7-16,52.6-39.9,68.6-68.6
				c30.2,54.2,88.2,90.9,154.5,90.9h5.9L458.1,447.6l-76.6-47.6l-0.2-0.1c-18.6-11.4-40.1-17.4-62-17.4
				c-65.7,0-119.1,53.4-119.1,119.1c0,65.7,53.4,119.1,119.1,119.1c36.1,0,70.5-17,94.5-46.6l0,0l54.4-67.9l35.6,22.2L311.7,768.3
				l17.4,36.2h52.3c72.9,0,132.3,59.3,132.3,132.2h44.6c0-72.9,59.3-132.3,132.3-132.3v-44.6c-72.9,0-132.3-59.3-132.3-132.3h-44.6
				c0,35.3-13.8,68.5-38.7,93.5l31.5,31.5c11.8-11.8,21.7-24.9,29.6-39c16.1,28.7,39.9,52.5,68.6,68.6
				c-28.8,16.1-52.6,39.9-68.7,68.7c-30.3-54.2-88.2-90.9-154.6-90.9h-5.9l166.4-207.7L618.8,600z M621,453.5
				c15.4-19.3,36.6-29.9,59.7-29.9c41.1,0,74.6,33.4,74.6,74.6s-33.4,74.6-74.6,74.6c-13.7,0-27.1-3.8-38.8-10.8l0,0L570,517.2
				L621,453.5z M378.9,546.4L378.9,546.4c-15.4,19-37.2,29.8-59.6,29.8c-41.1,0-74.6-33.4-74.6-74.6s33.4-74.6,74.6-74.6
				c13.7,0,27.1,3.7,38.7,10.8l72,44.8L378.9,546.4z"/>
		</g>
	</g>
</g>
</svg>
