<?xml version="1.0" encoding="utf-8"?>
<!-- Generator: Adobe Illustrator 26.3.1, SVG Export Plug-In . SVG Version: 6.00 Build 0)  -->
<svg version="1.1" xmlns="http://www.w3.org/2000/svg" xmlns:xlink="http://www.w3.org/1999/xlink" x="0px" y="0px"
	 viewBox="0 0 1000 1000" style="enable-background:new 0 0 1000 1000;" xml:space="preserve">
<style type="text/css">
	.st0{fill:none;stroke:#231F20;stroke-miterlimit:10;}
	.st1{fill:none;stroke:#E80088;stroke-width:0.25;stroke-miterlimit:10;}
	.st2{fill:#231F20;}
	.st3{fill:#E91C24;stroke:#FFFFFF;stroke-width:2;stroke-linejoin:round;stroke-miterlimit:10;}
	.st4{fill:#E91C24;}
	.st5{fill:none;stroke:#FFFFFF;stroke-width:2;stroke-miterlimit:10;}
	.st6{fill:none;stroke:#E80088;stroke-miterlimit:10;}
	.st7{fill:#231F20;stroke:#231F20;stroke-width:3;stroke-miterlimit:10;}
	.st8{fill:none;stroke:#231F20;stroke-width:3;stroke-miterlimit:10;}
	.st9{fill:#231F20;stroke:#231F20;stroke-miterlimit:10;}
	.st10{fill:none;stroke:#231F20;stroke-width:20;stroke-linejoin:bevel;stroke-miterlimit:10;}
	.st11{fill:none;stroke:#231F20;stroke-width:25;stroke-linejoin:bevel;stroke-miterlimit:10;}
	.st12{fill:none;stroke:#231F20;stroke-width:25;stroke-miterlimit:10;}
</style>
<g id="Layer_1">
</g>
<g id="Layer_2">
</g>
<g id="Layer_3">
	<g>
		<g>
			<path class="st2" d="M645.3,403.6c-29.5,0-57.4,13.8-76.6,37.8v0l0,0c-0.3,0.4-18.3,22.8-43.9,54.8L496,478.2l155.4-194
				l-14.1-29.3h-42.4c-59,0-107-48-107-107h-36.1c0,59-48,107-107,107v36.1c59,0,107,48,107,107h36.1c0-28.6,11.1-55.5,31.3-75.7
				l-25.5-25.5c-9.5,9.5-17.5,20.1-23.9,31.6c-13-23.2-32.2-42.5-55.5-55.4c23.3-13,42.6-32.3,55.5-55.5
				c24.5,43.8,71.4,73.6,125,73.6h4.8l-134.6,168l-62-38.6l-0.1-0.1c-15.1-9.2-32.4-14.1-50.2-14.1c-53.2,0-96.4,43.3-96.4,96.4
				s43.3,96.4,96.4,96.4c29.2,0,57.1-13.7,76.5-37.7l0,0l44-54.9l28.9,17.9c-64.9,81-154.1,192.3-155.5,194.1l14.1,29.3h42.4
				c59,0,107.1,48,107.1,107h36.1c0-59,48-107.1,107.1-107.1v-36.1c-59,0-107.1-48-107.1-107.1h-36.1c0,28.6-11.1,55.5-31.4,75.7
				l25.5,25.5c9.5-9.5,17.5-20.2,23.9-31.6c13,23.2,32.3,42.5,55.5,55.5c-23.3,13-42.6,32.3-55.6,55.6
				c-24.5-43.9-71.4-73.6-125.1-73.6h-4.8L533,543.8l62.2,38.7l0,0c15.1,9.2,32.4,14,50.1,14c53.2,0,96.4-43.3,96.4-96.4
				C741.8,446.8,698.5,403.6,645.3,403.6z M401.1,539L401.1,539c-12.5,15.3-30.1,24.1-48.2,24.1c-33.3,0-60.3-27.1-60.3-60.3
				s27.1-60.3,60.3-60.3c11.1,0,21.9,3,31.3,8.7l58.3,36.2L401.1,539z M645.3,560.3c-11.1,0-21.9-3-31.4-8.8l0,0l-58.2-36.2
				l38.7-48.4c0.8-1,1.6-2,2.4-3.2l0.1,0.1c12.5-15.6,29.7-24.2,48.4-24.2c33.3,0,60.3,27.1,60.3,60.3
				C705.7,533.3,678.6,560.3,645.3,560.3z M738.2,194C681.9,108.5,599.5,63.2,500,63.2S318.1,108.5,261.8,194
				c-51.1,77.6-78.1,183.4-78.1,306c0,122.6,27,228.4,78.1,306c56.3,85.5,138.7,130.8,238.2,130.8S681.9,891.5,738.2,806
				c51.1-77.6,78.1-183.4,78.1-306C816.3,377.4,789.3,271.6,738.2,194z M708,786.1c-24,36.5-53.3,64.7-87.1,84
				c-35.6,20.3-76.3,30.5-120.9,30.5s-85.3-10.3-120.9-30.5c-33.8-19.2-63.1-47.5-87.1-84c-46.5-70.7-72.2-172.3-72.2-286.1
				c0-113.9,25.6-215.5,72.2-286.1c24-36.5,53.3-64.7,87.1-84c35.6-20.3,76.3-30.5,120.9-30.5s85.3,10.3,120.9,30.5
				c33.8,19.2,63.1,47.5,87.1,84c46.5,70.7,72.2,172.3,72.2,286.1C780.2,613.9,754.6,715.5,708,786.1z"/>
		</g>
	</g>
</g>
</svg>
